<mxfile host="app.diagrams.net" modified="2024-01-01T18:02:29.377Z" agent="Mozilla/5.0 (Windows NT 10.0; Win64; x64; rv:121.0) Gecko/20100101 Firefox/121.0" etag="87p-NAVi-W1tgXGe5v_h" version="22.1.16" type="device">
  <diagram name="Page-1" id="1vUrRHOkJBhQOE9uUZrd">
    <mxGraphModel dx="1434" dy="782" grid="1" gridSize="10" guides="1" tooltips="1" connect="1" arrows="1" fold="1" page="1" pageScale="1" pageWidth="850" pageHeight="1100" math="0" shadow="0">
      <root>
        <mxCell id="0" />
        <mxCell id="1" parent="0" />
        <mxCell id="obbmkmHPKhclBu5uvltQ-3" value="" style="rounded=1;whiteSpace=wrap;html=1;" parent="1" vertex="1">
          <mxGeometry x="130" y="260" width="620" height="190" as="geometry" />
        </mxCell>
        <mxCell id="qCOMIhLOc6PoiviGoQhr-1" value="Developer&#39;s Machine" style="rhombus;whiteSpace=wrap;html=1;" parent="1" vertex="1">
          <mxGeometry x="140" y="140" width="140" height="80" as="geometry" />
        </mxCell>
        <mxCell id="qCOMIhLOc6PoiviGoQhr-2" value="GitLab Server" style="rounded=0;whiteSpace=wrap;html=1;" parent="1" vertex="1">
          <mxGeometry x="380" y="150" width="120" height="60" as="geometry" />
        </mxCell>
        <mxCell id="qCOMIhLOc6PoiviGoQhr-3" value="" style="endArrow=classic;html=1;rounded=0;exitX=1;exitY=0.5;exitDx=0;exitDy=0;entryX=0;entryY=0.5;entryDx=0;entryDy=0;" parent="1" source="qCOMIhLOc6PoiviGoQhr-1" target="qCOMIhLOc6PoiviGoQhr-2" edge="1">
          <mxGeometry width="50" height="50" relative="1" as="geometry">
            <mxPoint x="400" y="330" as="sourcePoint" />
            <mxPoint x="450" y="280" as="targetPoint" />
          </mxGeometry>
        </mxCell>
        <mxCell id="qCOMIhLOc6PoiviGoQhr-5" value="" style="swimlane;fontStyle=0;childLayout=stackLayout;horizontal=1;startSize=30;horizontalStack=0;resizeParent=1;resizeParentMax=0;resizeLast=0;collapsible=1;marginBottom=0;whiteSpace=wrap;html=1;align=center;" parent="1" vertex="1">
          <mxGeometry x="365" y="310" width="140" height="120" as="geometry" />
        </mxCell>
        <mxCell id="qCOMIhLOc6PoiviGoQhr-6" value="-build" style="text;strokeColor=none;fillColor=none;align=center;verticalAlign=middle;spacingLeft=4;spacingRight=4;overflow=hidden;points=[[0,0.5],[1,0.5]];portConstraint=eastwest;rotatable=0;whiteSpace=wrap;html=1;" parent="qCOMIhLOc6PoiviGoQhr-5" vertex="1">
          <mxGeometry y="30" width="140" height="30" as="geometry" />
        </mxCell>
        <mxCell id="qCOMIhLOc6PoiviGoQhr-7" value="-test" style="text;strokeColor=none;fillColor=none;align=center;verticalAlign=middle;spacingLeft=4;spacingRight=4;overflow=hidden;points=[[0,0.5],[1,0.5]];portConstraint=eastwest;rotatable=0;whiteSpace=wrap;html=1;" parent="qCOMIhLOc6PoiviGoQhr-5" vertex="1">
          <mxGeometry y="60" width="140" height="30" as="geometry" />
        </mxCell>
        <mxCell id="qCOMIhLOc6PoiviGoQhr-8" value="-sonar" style="text;strokeColor=none;fillColor=none;align=center;verticalAlign=middle;spacingLeft=4;spacingRight=4;overflow=hidden;points=[[0,0.5],[1,0.5]];portConstraint=eastwest;rotatable=0;whiteSpace=wrap;html=1;" parent="qCOMIhLOc6PoiviGoQhr-5" vertex="1">
          <mxGeometry y="90" width="140" height="30" as="geometry" />
        </mxCell>
        <mxCell id="qCOMIhLOc6PoiviGoQhr-9" value="" style="endArrow=classic;html=1;rounded=0;entryX=0.75;entryY=0;entryDx=0;entryDy=0;" parent="1" source="qCOMIhLOc6PoiviGoQhr-2" edge="1">
          <mxGeometry width="50" height="50" relative="1" as="geometry">
            <mxPoint x="620" y="145" as="sourcePoint" />
            <mxPoint x="440" y="260" as="targetPoint" />
          </mxGeometry>
        </mxCell>
        <mxCell id="qCOMIhLOc6PoiviGoQhr-10" value="Gitlab Runner&lt;br&gt;(Executes CI/CD jobs)" style="rounded=0;whiteSpace=wrap;html=1;" parent="1" vertex="1">
          <mxGeometry x="160" y="355" width="120" height="60" as="geometry" />
        </mxCell>
        <mxCell id="qCOMIhLOc6PoiviGoQhr-11" value="" style="endArrow=none;html=1;rounded=0;exitX=1;exitY=0.25;exitDx=0;exitDy=0;entryX=0;entryY=0.5;entryDx=0;entryDy=0;strokeColor=none;" parent="1" source="qCOMIhLOc6PoiviGoQhr-10" target="qCOMIhLOc6PoiviGoQhr-6" edge="1">
          <mxGeometry width="50" height="50" relative="1" as="geometry">
            <mxPoint x="395" y="385" as="sourcePoint" />
            <mxPoint x="445" y="335" as="targetPoint" />
          </mxGeometry>
        </mxCell>
        <mxCell id="qCOMIhLOc6PoiviGoQhr-14" value="SonarQube&lt;br&gt;(Test Coverage)" style="rounded=0;whiteSpace=wrap;html=1;align=center;" parent="1" vertex="1">
          <mxGeometry x="580" y="350" width="120" height="60" as="geometry" />
        </mxCell>
        <mxCell id="qCOMIhLOc6PoiviGoQhr-17" value="" style="endArrow=classic;html=1;rounded=0;exitX=1;exitY=0.5;exitDx=0;exitDy=0;entryX=0;entryY=0.5;entryDx=0;entryDy=0;" parent="1" source="qCOMIhLOc6PoiviGoQhr-8" target="qCOMIhLOc6PoiviGoQhr-14" edge="1">
          <mxGeometry width="50" height="50" relative="1" as="geometry">
            <mxPoint x="425" y="405" as="sourcePoint" />
            <mxPoint x="475" y="355" as="targetPoint" />
          </mxGeometry>
        </mxCell>
        <mxCell id="qCOMIhLOc6PoiviGoQhr-18" value="GitLab CI/CD Pipeline" style="text;html=1;strokeColor=none;fillColor=none;align=center;verticalAlign=middle;whiteSpace=wrap;rounded=0;" parent="1" vertex="1">
          <mxGeometry x="355" y="260" width="160" height="30" as="geometry" />
        </mxCell>
        <mxCell id="qCOMIhLOc6PoiviGoQhr-21" value="" style="endArrow=classic;html=1;rounded=0;exitX=1;exitY=0.25;exitDx=0;exitDy=0;entryX=0;entryY=0.5;entryDx=0;entryDy=0;" parent="1" source="qCOMIhLOc6PoiviGoQhr-10" target="qCOMIhLOc6PoiviGoQhr-6" edge="1">
          <mxGeometry width="50" height="50" relative="1" as="geometry">
            <mxPoint x="420" y="400" as="sourcePoint" />
            <mxPoint x="470" y="350" as="targetPoint" />
          </mxGeometry>
        </mxCell>
        <mxCell id="qCOMIhLOc6PoiviGoQhr-22" value="" style="endArrow=classic;html=1;rounded=0;exitX=1;exitY=0.5;exitDx=0;exitDy=0;entryX=0;entryY=0.5;entryDx=0;entryDy=0;" parent="1" source="qCOMIhLOc6PoiviGoQhr-10" target="qCOMIhLOc6PoiviGoQhr-7" edge="1">
          <mxGeometry width="50" height="50" relative="1" as="geometry">
            <mxPoint x="420" y="400" as="sourcePoint" />
            <mxPoint x="470" y="350" as="targetPoint" />
          </mxGeometry>
        </mxCell>
        <mxCell id="qCOMIhLOc6PoiviGoQhr-26" value="" style="endArrow=classic;html=1;rounded=0;exitX=1;exitY=0.75;exitDx=0;exitDy=0;entryX=0;entryY=0.5;entryDx=0;entryDy=0;" parent="1" source="qCOMIhLOc6PoiviGoQhr-10" target="qCOMIhLOc6PoiviGoQhr-8" edge="1">
          <mxGeometry width="50" height="50" relative="1" as="geometry">
            <mxPoint x="420" y="400" as="sourcePoint" />
            <mxPoint x="470" y="350" as="targetPoint" />
          </mxGeometry>
        </mxCell>
      </root>
    </mxGraphModel>
  </diagram>
</mxfile>
